<?xml version="1.0" encoding="utf-8"?>
<?xml-stylesheet type="text/xsl" href="rss1.xsl"?>
<rss version="2.0" xmlns:atom="http://www.w3.org/2005/Atom" xmlns:content="http://purl.org/rss/1.0/modules/content/" xmlns:dc="http://purl.org/dc/elements/1.1/" xmlns:media="http://search.yahoo.com/mrss/">
<channel>
 <title>Getty</title>
 <link>http://www.gettyimg.com/</link>
 <atom:link href="http://www.gettyimg.com/" rel="self" type="application/rss+xml" />

 
                <item>
                <title><![CDATA[【PRORES HD】Tate Mcrae - stupid (2020) [1080p ProRes Master]]]></title>
                <link><![CDATA[https://sharemania.us/threads/tate-mcrae-stupid-2020-1080p-prores-master.241049/]]></link>
                <description><![CDATA[<article>
<blockquote class="messageText SelectQuoteContainer ugc baseHtml">
<img src="https://i.imgur.com/NV1gpgf.jpeg" class="bbCodeImage LbImage" alt="[​IMG]" data-url="https://i.imgur.com/NV1gpgf.jpeg" style=""> <br>
<br>
Tate Mcrae - stupid (2020) [1080p ProRes Master]<br>
<br>
<div class="ToggleTriggerAnchor bbCodeSpoilerContainer">
<button type="button" class="button bbCodeSpoilerButton ToggleTrigger Tooltip JsOnly" data-target="> .SpoilerTarget"><span>Spoiler: <span class="SpoilerTitle">MediaInfo</span></span></button>
<div class="SpoilerTarget bbCodeSpoilerText">General<br>
Complete name : Tate Mcrae - stupid (2020) [1080p ProRes Master] - krabs.mov<br>
Format : MPEG-4<br>
Format profile : QuickTime<br>
Codec ID : qt 2005.03 (qt )<br>
File size : 1.51 GiB<br>
Duration : 2 min 58 s<br>
Overall bit rate mode : Variable<br>
Overall bit rate : 72.4 Mb/s<br>
Encoded date : UTC 2020-02-11 00:57:50<br>
Tagged date : UTC 2020-02-10 01:00:33<br>
Writing library : Apple QuickTime<br>
©TIM : 00:00:00:16<br>
©TSC : 24000<br>
©TSZ : 1001<br>
<br>
Video<br>
ID : 1<br>
Format : ProRes<br>
Format version : Version 0<br>
Format profile : 422 LT<br>
Codec ID : apcs<br>
Duration : 2 min 58 s<br>
Bit rate mode : Variable<br>
Bit rate : 70.9 Mb/s<br>
Width : 1 920 pixels<br>
Height : 1 080 pixels<br>
Display aspect ratio : 16:9<br>
Frame rate mode : Constant<br>
Frame rate : 23.976 (24000/1001) FPS<br>
Color space : YUV<br>
Chroma subsampling : 4:2:2<br>
Scan type : Progressive<br>
Bits/(Pixel*Frame) : 1.425<br>
Stream size : 1.47 GiB (98%)<br>
Writing library : Apple<br>
Language : English<br>
Encoded date : UTC 2020-02-11 00:57:50<br>
Tagged date : UTC 2020-02-11 00:57:50<br>
Color primaries : BT.709<br>
Transfer characteristics : BT.709<br>
Matrix coefficients : BT.709<br>
<br>
Audio<br>
ID : 2<br>
Format : PCM<br>
Format settings, Endianness : Little<br>
Format settings, Sign : Signed<br>
Codec ID : sowt<br>
Duration : 2 min 58 s<br>
Bit rate mode : Constant<br>
Bit rate : 1 536 kb/s<br>
Channel(s) : 2 channels<br>
Channel positions : Front: L R<br>
Sampling rate : 48.0 kHz<br>
Bit depth : 16 bits<br>
Stream size : 32.7 MiB (2%)<br>
Language : English<br>
Encoded date : UTC 2020-02-11 00:57:50<br>
Tagged date : UTC 2020-02-11 00:57:50<br>
<br>
Other<br>
ID : 3<br>
Type : Time code<br>
Format : QuickTime TC<br>
Duration : 2 min 58 s<br>
Time code of first frame : 00:00:00:16<br>
Time code, striped : Yes<br>
Language : English<br>
Encoded date : UTC 2020-02-11 00:57:50<br>
Tagged date : UTC 2020-02-11 00:57:50</div>
</div><br>
<div class="bbCodeBlock bbCodeCode">
<div class="type">Code:</div>
<pre>PASSWORD: krabs</pre>
</div>
<div class="bbCodeBlock bbCodeVfcHH HiddenContent">
<div class="attribution type">Hidden Content:</div>
<blockquote>You must either reply or click 'Like' to see the hidden information contained here.</blockquote>
</div>
<div class="messageTextEndMarker">&nbsp;</div>
</blockquote>
</article>]]></description>
                <author><![CDATA[krabs]]></author>
                </item>

                
                <item>
                <title><![CDATA[【Music Videos】Raf - Ti Pretendo]]></title>
                <link><![CDATA[https://sharemania.us/threads/raf-ti-pretendo.241052/]]></link>
                <description><![CDATA[<article>
<blockquote class="messageText SelectQuoteContainer ugc baseHtml">
<img src="https://i.ibb.co/jGSsnx4/Raf-Ti-Pretendo-vob-thumbs-2024-03-29-21-40-16.jpg" class="bbCodeImage LbImage" alt="[​IMG]" data-url="https://i.ibb.co/jGSsnx4/Raf-Ti-Pretendo-vob-thumbs-2024-03-29-21-40-16.jpg" style=""> <br>
<br>
<div class="ToggleTriggerAnchor bbCodeSpoilerContainer">
<button type="button" class="button bbCodeSpoilerButton ToggleTrigger Tooltip JsOnly" data-target="> .SpoilerTarget"><span>Spoiler: <span class="SpoilerTitle">MediaInfo</span></span></button>
<div class="SpoilerTarget bbCodeSpoilerText">Raf - Ti Pretendo.vob<br>
Format : MPEG-PS<br>
File size : 137 MiB<br>
Duration : 4 min 20 s<br>
Overall bit rate mode : Variable<br>
Overall bit rate : 4 407 kb/s<br>
Frame rate : 25.000 FPS<br>
<br>
Video<br>
ID : 224 (0xE0)<br>
Format : MPEG Video<br>
Format version : Version 2<br>
Format profile : Main@Main<br>
Format settings, BVOP : No<br>
Format settings, Matrix : Default<br>
Format settings, GOP : N=15<br>
Duration : 4 min 20 s<br>
Bit rate mode : Variable<br>
Bit rate : 3 871 kb/s<br>
Maximum bit rate : 9 000 kb/s<br>
Width : 720 pixels<br>
Height : 576 pixels<br>
Display aspect ratio : 5:4<br>
Frame rate : 25.000 FPS<br>
Standard : PAL<br>
Color space : YUV<br>
Chroma subsampling : 4:2:0<br>
Bit depth : 8 bits<br>
Scan type : Progressive<br>
Compression mode : Lossy<br>
Bits/(Pixel*Frame) : 0.373<br>
Time code of first frame : 00:00:00:00<br>
Time code source : Group of pictures header<br>
GOP, Open/Closed : Open<br>
Stream size : 120 MiB (88%)<br>
<br>
Audio<br>
ID : 189 (0xBD)-128 (0x80)<br>
Format : AC-3<br>
Format/Info : Audio Coding 3<br>
Commercial name : Dolby Digital<br>
Muxing mode : DVD-Video<br>
Duration : 4 min 20 s<br>
Bit rate mode : Constant<br>
Bit rate : 448 kb/s<br>
Channel(s) : 2 channels<br>
Channel layout : L R<br>
Sampling rate : 48.0 kHz<br>
Frame rate : 31.250 FPS (1536 SPF)<br>
Compression mode : Lossy<br>
Stream size : 13.9 MiB (10%)<br>
Service kind : Complete Main</div>
</div><br>
<div class="bbCodeBlock bbCodeVfcHH HiddenContent">
<div class="attribution type">Hidden Content:</div>
<blockquote>You must reply before you can see the hidden data contained here.</blockquote>
</div>
<div class="messageTextEndMarker">&nbsp;</div>
</blockquote>
</article>]]></description>
                <author><![CDATA[DJ-RoGeRs-BS]]></author>
                </item>

                
                <item>
                <title><![CDATA[【PRORES HD】Arlo Parks - Softly (2022) [1080p ProRes Master]]]></title>
                <link><![CDATA[https://sharemania.us/threads/arlo-parks-softly-2022-1080p-prores-master.241050/]]></link>
                <description><![CDATA[<article>
<blockquote class="messageText SelectQuoteContainer ugc baseHtml">
<img src="https://i.imgur.com/XpqQ7aC.jpeg" class="bbCodeImage LbImage" alt="[​IMG]" data-url="https://i.imgur.com/XpqQ7aC.jpeg" style=""> <br>
<br>
Arlo Parks - Softly (2022) [1080p ProRes Master]<br>
<br>
<div class="ToggleTriggerAnchor bbCodeSpoilerContainer">
<button type="button" class="button bbCodeSpoilerButton ToggleTrigger Tooltip JsOnly" data-target="> .SpoilerTarget"><span>Spoiler: <span class="SpoilerTitle">MediaInfo</span></span></button>
<div class="SpoilerTarget bbCodeSpoilerText">General<br>
Complete name : Arlo Parks - Softly (2022) [1080p ProRes Master] - krabs.mp4<br>
Format : MPEG-4<br>
Format profile : QuickTime<br>
Codec ID : qt 2005.03 (qt )<br>
File size : 4.21 GiB<br>
Duration : 3 min 13 s<br>
Overall bit rate mode : Variable<br>
Overall bit rate : 187 Mb/s<br>
Encoded date : UTC 2022-01-29 13:55:51<br>
Tagged date : UTC 2022-01-29 13:58:49<br>
Writing library : Apple QuickTime<br>
©TIM : 01:00:00:00<br>
©TSC : 25<br>
©TSZ : 1<br>
<br>
Video<br>
ID : 1<br>
Format : ProRes<br>
Format version : Version 0<br>
Format profile : 422 HQ<br>
Codec ID : apch<br>
Duration : 3 min 13 s<br>
Bit rate mode : Variable<br>
Bit rate : 185 Mb/s<br>
Width : 1 920 pixels<br>
Height : 1 080 pixels<br>
Display aspect ratio : 16:9<br>
Frame rate mode : Constant<br>
Frame rate : 25.000 FPS<br>
Color space : YUV<br>
Chroma subsampling : 4:2:2<br>
Scan type : Progressive<br>
Bits/(Pixel*Frame) : 3.577<br>
Stream size : 4.17 GiB (99%)<br>
Writing library : Apple<br>
Language : English<br>
Encoded date : UTC 2022-01-29 13:55:51<br>
Tagged date : UTC 2022-01-29 13:55:51<br>
Color primaries : BT.709<br>
Transfer characteristics : BT.709<br>
Matrix coefficients : RGB<br>
colour_primaries_Original : BT.709<br>
transfer_characteristics_Origi : BT.709<br>
matrix_coefficients_Original : BT.709<br>
<br>
Audio<br>
ID : 2<br>
Format : PCM<br>
Format settings, Endianness : Little<br>
Format settings, Sign : Signed<br>
Codec ID : sowt<br>
Duration : 3 min 13 s<br>
Bit rate mode : Constant<br>
Bit rate : 1 536 kb/s<br>
Channel(s) : 2 channels<br>
Channel positions : Front: L R<br>
Sampling rate : 48.0 kHz<br>
Bit depth : 16 bits<br>
Stream size : 35.4 MiB (1%)<br>
Language : English<br>
Encoded date : UTC 2022-01-29 13:55:51<br>
Tagged date : UTC 2022-01-29 13:55:51<br>
<br>
Other<br>
ID : 3<br>
Type : Time code<br>
Format : QuickTime TC<br>
Duration : 3 min 13 s<br>
Time code of first frame : 01:00:00:00<br>
Time code, striped : Yes<br>
Language : English<br>
Encoded date : UTC 2022-01-29 13:55:51<br>
Tagged date : UTC 2022-01-29 13:55:51</div>
</div><br>
<div class="bbCodeBlock bbCodeCode">
<div class="type">Code:</div>
<pre>PASSWORD: krabs</pre>
</div>
<div class="bbCodeBlock bbCodeVfcHH HiddenContent">
<div class="attribution type">Hidden Content:</div>
<blockquote>You must either reply or click 'Like' to see the hidden information contained here.</blockquote>
</div>
<div class="messageTextEndMarker">&nbsp;</div>
</blockquote>
</article>]]></description>
                <author><![CDATA[krabs]]></author>
                </item>

                
                <item>
                <title><![CDATA[【PRORES HD】ATO - Monster (2017) [ProRes Master]]]></title>
                <link><![CDATA[https://sharemania.us/threads/ato-monster-2017-prores-master.241051/]]></link>
                <description><![CDATA[<article>
<blockquote class="messageText SelectQuoteContainer ugc baseHtml">
<img src="https://i.imgur.com/78FSt1q.jpeg" class="bbCodeImage LbImage" alt="[​IMG]" data-url="https://i.imgur.com/78FSt1q.jpeg" style=""> <br>
<br>
ATO - Monster (2017) [ProRes Master]<br>
<br>
<div class="ToggleTriggerAnchor bbCodeSpoilerContainer">
<button type="button" class="button bbCodeSpoilerButton ToggleTrigger Tooltip JsOnly" data-target="> .SpoilerTarget"><span>Spoiler: <span class="SpoilerTitle">MediaInfo</span></span></button>
<div class="SpoilerTarget bbCodeSpoilerText">General<br>
Complete name : ATO - Monster (2017) [ProRes Master] - krabs.mov<br>
Format : MPEG-4<br>
Format profile : QuickTime<br>
Codec ID : qt 2005.03 (qt )<br>
File size : 4.27 GiB<br>
Duration : 5 min 57 s<br>
Overall bit rate mode : Variable<br>
Overall bit rate : 103 Mb/s<br>
Encoded date : UTC 2018-07-16 10:39:42<br>
Tagged date : UTC 2018-07-16 11:47:55<br>
Writing library : Apple QuickTime<br>
©TIM : 00:00:00:00<br>
©TSC : 25<br>
©TSZ : 1<br>
<br>
Video<br>
ID : 1<br>
Format : ProRes<br>
Format version : Version 0<br>
Format profile : 422<br>
Codec ID : apcn<br>
Duration : 5 min 57 s<br>
Bit rate mode : Variable<br>
Bit rate : 101 Mb/s<br>
Width : 1 440 pixels<br>
Height : 1 080 pixels<br>
Display aspect ratio : 4:3<br>
Frame rate mode : Constant<br>
Frame rate : 25.000 FPS<br>
Color space : YUV<br>
Chroma subsampling : 4:2:2<br>
Scan type : Progressive<br>
Bits/(Pixel*Frame) : 2.603<br>
Stream size : 4.21 GiB (98%)<br>
Writing library : Apple<br>
Language : English<br>
Encoded date : UTC 2018-07-16 10:39:42<br>
Tagged date : UTC 2018-07-16 10:39:42<br>
Color primaries : BT.709<br>
Transfer characteristics : BT.709<br>
Matrix coefficients : BT.709<br>
<br>
Audio<br>
ID : 2<br>
Format : PCM<br>
Format settings, Endianness : Little<br>
Format settings, Sign : Signed<br>
Codec ID : sowt<br>
Duration : 5 min 57 s<br>
Bit rate mode : Constant<br>
Bit rate : 1 536 kb/s<br>
Channel(s) : 2 channels<br>
Channel positions : Front: L R<br>
Sampling rate : 48.0 kHz<br>
Bit depth : 16 bits<br>
Stream size : 65.4 MiB (1%)<br>
Language : English<br>
Encoded date : UTC 2018-07-16 10:39:42<br>
Tagged date : UTC 2018-07-16 10:39:42<br>
<br>
Other<br>
ID : 3<br>
Type : Time code<br>
Format : QuickTime TC<br>
Duration : 5 min 57 s<br>
Time code of first frame : 00:00:00:00<br>
Time code, striped : Yes<br>
Language : English<br>
Encoded date : UTC 2018-07-16 10:39:42<br>
Tagged date : UTC 2018-07-16 10:39:42</div>
</div><br>
<div class="bbCodeBlock bbCodeCode">
<div class="type">Code:</div>
<pre>PASSWORD: krabs</pre>
</div>
<div class="bbCodeBlock bbCodeVfcHH HiddenContent">
<div class="attribution type">Hidden Content:</div>
<blockquote>You must either reply or click 'Like' to see the hidden information contained here.</blockquote>
</div>
<div class="messageTextEndMarker">&nbsp;</div>
</blockquote>
</article>]]></description>
                <author><![CDATA[krabs]]></author>
                </item>

                </channel></rss>